
<svg version="1.0" fill="#000000" xmlns="http://www.w3.org/2000/svg"
 width="512.000000pt" height="512.000000pt" viewBox="0 0 512.000000 512.000000"
 preserveAspectRatio="xMidYMid meet" >

<g  transform="translate(0.000000,512.000000) scale(0.100000,-0.100000)"
 stroke="none">
<path d="M2320 4549 c-764 -69 -1431 -451 -1949 -1117 -181 -232 -295 -433
-342 -602 -21 -75 -24 -106 -24 -270 0 -163 3 -195 24 -270 89 -325 463 -814
881 -1153 362 -294 815 -487 1300 -554 172 -23 528 -23 700 0 731 101 1345
470 1838 1104 182 233 296 434 343 603 21 75 24 106 24 270 0 164 -3 195 -24
270 -47 169 -161 370 -342 602 -494 635 -1113 1007 -1834 1103 -147 20 -453
27 -595 14z m590 -453 c653 -112 1222 -506 1631 -1129 91 -138 126 -220 141
-328 23 -165 -17 -300 -147 -495 -370 -556 -867 -932 -1422 -1074 -171 -45
-287 -60 -488 -67 -376 -12 -686 54 -1021 217 -390 189 -743 509 -1019 924
-92 139 -132 228 -147 336 -23 166 16 300 147 496 377 566 885 944 1455 1083
63 16 156 34 205 40 50 6 101 13 115 15 61 11 460 -3 550 -18z"/>
<path d="M2374 3616 c-232 -44 -406 -136 -570 -300 -142 -141 -230 -294 -282
-485 -23 -86 -26 -114 -26 -271 0 -157 3 -185 26 -271 101 -375 392 -666 764
-766 89 -24 116 -27 274 -27 158 0 185 3 274 27 372 100 663 392 764 766 22
85 26 116 26 266 1 195 -15 277 -82 432 -54 126 -121 223 -226 329 -144 144
-308 237 -500 285 -105 27 -340 34 -442 15z m281 -431 c212 -23 414 -189 502
-410 26 -65 28 -80 28 -215 0 -140 -1 -148 -32 -225 -59 -146 -183 -280 -319
-345 -91 -44 -167 -61 -274 -61 -107 0 -183 17 -274 61 -136 65 -260 199 -319
345 -31 77 -32 85 -32 225 0 135 2 150 28 215 72 181 205 314 381 380 66 25
185 45 236 39 14 -2 48 -6 75 -9z"/>
</g>
</svg>
