
<svg version="1.0" xmlns="http://www.w3.org/2000/svg"
 width="512.000000pt" height="512.000000pt" viewBox="0 0 512.000000 512.000000"
 preserveAspectRatio="xMidYMid meet">

<g transform="translate(0.000000,512.000000) scale(0.100000,-0.100000)" stroke="none">
<path d="M2136 5105 c-395 -81 -723 -387 -823 -770 l-17 -64 -367 -3 -367 -3
-44 -30 c-136 -97 -124 -301 23 -376 32 -16 59 -19 173 -19 l136 0 2 -1472 3
-1473 27 -97 c95 -345 342 -617 671 -738 158 -58 110 -55 1007 -55 l825 0 85
23 c108 29 286 116 370 180 196 149 332 351 398 590 l27 97 3 1473 2 1472 136
0 c153 0 189 11 242 76 81 98 60 244 -46 319 l-44 30 -367 3 -367 3 -17 64
c-94 361 -389 653 -765 758 -72 19 -104 21 -457 23 -294 2 -396 0 -449 -11z
m829 -449 c179 -62 323 -191 389 -349 l15 -37 -809 0 -809 0 15 37 c78 185
272 336 477 372 29 5 185 9 347 7 294 -2 295 -2 375 -30z m873 -2248 c-4
-1599 2 -1470 -75 -1627 -48 -100 -168 -222 -268 -273 -148 -77 -102 -73 -935
-73 -833 0 -787 -4 -935 73 -101 52 -220 173 -268 272 -77 158 -71 28 -75
1628 l-3 1432 1281 0 1281 0 -3 -1432z"/>
<path d="M2033 2965 c-32 -16 -61 -41 -79 -67 l-29 -41 -3 -712 -2 -711 23
-45 c13 -24 43 -57 66 -74 39 -27 50 -30 125 -30 75 0 87 3 124 29 26 18 51
47 67 79 l25 51 0 690 c0 651 -2 693 -19 731 -52 113 -183 157 -298 100z"/>
<path d="M2895 2971 c-22 -10 -52 -31 -67 -47 -60 -64 -58 -40 -58 -792 l0
-688 25 -51 c38 -75 89 -107 179 -111 91 -4 146 22 194 92 l32 49 -2 717 -3
717 -29 41 c-56 82 -180 115 -271 73z"/>
</g>
</svg>
